<svg width="277" height="331" viewBox="0 0 277 331" fill="none" xmlns="http://www.w3.org/2000/svg">
<path d="M139.5 331L103.56 256.75H175.44L139.5 331Z" fill="black"/>
<path d="M138.5 34.5C194.682 34.5 241.5 84.5795 241.5 148C241.5 211.421 194.682 261.5 138.5 261.5C82.3187 261.5 35.5002 211.421 35.5002 148C35.5002 84.5795 82.3187 34.5 138.5 34.5Z" fill="#FFC14F" stroke="black" stroke-width="17"/>
<path d="M117.872 166.143L53.0002 149.616L117.872 136.314L137.158 43L161.046 138.128L220 149.616L161.046 166.143L137.158 252L117.872 166.143Z" fill="black"/>
<path d="M128.925 57.7139L113.08 132.312L58.6086 143.179L71.3691 86.6714L128.925 57.7139Z" fill="black" stroke="black" stroke-width="6"/>
<path d="M144.411 249.96L164.65 170.801L216.274 156.123L206.145 207.046L144.411 249.96Z" fill="black" stroke="black" stroke-width="6"/>
<path d="M117.892 119.332L114.257 134.768L98.5446 137.682L73.923 89.688L117.892 119.332Z" fill="#FFC14F"/>
<path d="M160.62 182.568L162.375 169.674L175.466 165.876L200.514 202.702L160.62 182.568Z" fill="#FFC14F"/>
<path d="M138.894 0.089352L150.491 27.9169L126.866 27.7622L138.894 0.089352Z" fill="black"/>
<path d="M276.871 147.602L246.612 158.635L246.411 137.041L276.871 147.602Z" fill="black"/>
<path d="M0.5404 149.461L30.4096 137.573L31.3456 159.15L0.5404 149.461Z" fill="black"/>
<path d="M139 146C143.419 146 147 148.91 147 152.5C147 156.09 143.419 159 139 159C134.582 159 131 156.09 131 152.5C131 148.91 134.582 146 139 146Z" fill="white"/>
<path d="M139 146C143.419 146 147 148.91 147 152.5C147 156.09 143.419 159 139 159C134.582 159 131 156.09 131 152.5C131 148.91 134.582 146 139 146Z" stroke="black"/>
<path d="M132 254L112.886 171.155L56.0002 155L66.0122 199.944L132 254Z" fill="black"/>
<path d="M71.0002 198L96.6597 166L115.206 169.701L118 185.374L71.0002 198Z" fill="#FFC14F"/>
<path d="M71.0002 198L96.6597 166L115.206 169.701L118 185.374L71.0002 198Z" fill="#FFC14F"/>
<path d="M145 55L163.108 131.151L217 146L207.515 104.688L145 55Z" fill="black"/>
<path d="M202 111L179.616 136L163.438 133.109L161 120.864L202 111Z" fill="#FFC14F"/>
<path d="M139.5 331L103.56 256.75H175.44L139.5 331Z" fill="black"/>
<path d="M138.5 28.5C198.548 28.5 247.5 80.503 247.5 145C247.5 209.497 198.548 261.5 138.5 261.5C78.452 261.5 29.5002 209.497 29.5002 145C29.5002 80.503 78.452 28.5 138.5 28.5Z" fill="#FFC14F" stroke="black" stroke-width="5"/>
<path d="M117.872 166.143L53.0002 149.616L117.872 136.314L137.158 43L161.046 138.128L220 149.616L161.046 166.143L137.158 252L117.872 166.143Z" fill="black"/>
<path d="M125.511 58.6361L111.198 127.432L61.49 137.364L73.0237 85.253L125.511 58.6361Z" fill="black" stroke="black" stroke-width="6"/>
<path d="M144.411 249.96L164.65 170.801L216.274 156.123L206.145 207.046L144.411 249.96Z" fill="black" stroke="black" stroke-width="6"/>
<path d="M120.969 119.552L117.334 134.988L101.622 137.902L77.0001 89.9077L120.969 119.552Z" fill="#FFC14F"/>
<path d="M159.006 181.008L160.762 168.114L173.853 164.316L198.901 201.143L159.006 181.008Z" fill="#FFC14F"/>
<path d="M138.894 0.089352L150.491 27.9169L126.866 27.7622L138.894 0.089352Z" fill="black"/>
<path d="M276.871 147.602L246.612 158.635L246.411 137.041L276.871 147.602Z" fill="black"/>
<path d="M0.5404 149.461L30.4096 137.573L31.3456 159.15L0.5404 149.461Z" fill="black"/>
<path d="M139 146C143.419 146 147 148.91 147 152.5C147 156.09 143.419 159 139 159C134.582 159 131 156.09 131 152.5C131 148.91 134.582 146 139 146Z" fill="white"/>
<path d="M139 146C143.419 146 147 148.91 147 152.5C147 156.09 143.419 159 139 159C134.582 159 131 156.09 131 152.5C131 148.91 134.582 146 139 146Z" stroke="black"/>
<path d="M132 254L112.886 171.155L56.0002 155L66.0122 199.944L132 254Z" fill="black"/>
<path d="M71.0002 198L96.6597 166L115.206 169.701L118 185.374L71.0002 198Z" fill="#FFC14F"/>
<path d="M71.0002 198L96.6597 166L115.206 169.701L118 185.374L71.0002 198Z" fill="#FFC14F"/>
<path d="M144 54L164.195 133.828L216 145L207.439 86.7031L144 54Z" fill="black"/>
<path d="M205 92L180.097 138L163.932 134.772L160 117.421L205 92Z" fill="#FFC14F"/>
<path d="M139 310L110.421 251.5H167.579L139 310Z" fill="#FFC14F"/>
</svg>
